<?xml version="1.0" standalone="no"?>
<!DOCTYPE svg PUBLIC "-//W3C//DTD SVG 20010904//EN"
 "http://www.w3.org/TR/2001/REC-SVG-20010904/DTD/svg10.dtd">
<svg version="1.0" xmlns="http://www.w3.org/2000/svg"
 width="1024.000000pt" height="1024.000000pt" viewBox="0 0 1024.000000 1024.000000"
 preserveAspectRatio="xMidYMid meet">
<metadata>
Created by potrace 1.11, written by Peter Selinger 2001-2013
</metadata>
<g transform="translate(0.000000,1024.000000) scale(0.100000,-0.100000)"
fill="#000000" stroke="none">
<path d="M857 10230 c-132 -23 -281 -82 -392 -155 -223 -148 -353 -330 -438
-610 l-22 -70 -3 -4240 c-2 -3849 -1 -4247 13 -4320 33 -159 95 -299 192 -430
135 -183 356 -327 583 -382 72 -17 260 -18 4330 -18 4070 0 4258 1 4330 18
104 25 230 80 325 142 223 146 364 345 442 625 17 62 18 247 18 4330 0 4083
-1 4268 -18 4330 -44 157 -99 272 -187 388 -133 177 -307 294 -545 369 l-90
28 -4245 1 c-2335 1 -4267 -2 -4293 -6z m3038 -3810 c302 -33 553 -150 756
-352 165 -165 288 -408 335 -665 25 -137 30 -376 10 -511 -81 -548 -418 -931
-926 -1053 -249 -59 -575 -40 -805 46 -398 151 -657 462 -758 913 -29 133 -32
481 -4 612 98 460 363 784 763 935 191 72 415 98 629 75z m2880 -1 c564 -68
951 -421 1077 -980 20 -92 23 -130 23 -324 0 -177 -4 -237 -19 -305 -99 -458
-359 -774 -762 -926 -227 -85 -559 -104 -804 -44 -491 119 -820 476 -916 995
-26 136 -25 418 0 560 103 570 513 959 1076 1024 109 12 223 12 325 0z m2525
-14 c151 -29 307 -103 424 -201 l45 -37 -44 -87 c-45 -90 -82 -130 -118 -130
-12 0 -55 22 -96 50 -91 59 -206 113 -280 130 -70 17 -242 17 -311 0 -218 -52
-343 -209 -327 -414 14 -186 124 -273 512 -406 362 -125 498 -198 596 -323 87
-110 120 -215 120 -386 0 -233 -70 -409 -221 -561 -144 -143 -333 -222 -565
-237 -308 -18 -612 87 -830 288 l-43 40 50 85 c56 94 87 124 127 124 28 0 41
-8 152 -89 85 -61 210 -124 292 -145 152 -40 336 -27 464 33 65 31 159 111
192 165 63 103 82 280 41 388 -27 73 -105 153 -198 201 -37 20 -177 72 -309
116 -350 115 -448 166 -556 288 -49 56 -108 170 -125 243 -21 86 -24 211 -9
295 57 310 274 516 610 581 89 17 287 11 407 -11z m-7130 -145 l0 -140 -620 0
-620 0 0 -455 0 -455 530 0 530 0 0 -135 0 -135 -530 0 -530 0 0 -555 0 -555
-170 0 -170 0 0 1285 0 1285 790 0 790 0 0 -140z"/>
<path d="M3568 6120 c-367 -67 -602 -292 -706 -679 -24 -89 -26 -112 -26 -321
-1 -214 0 -230 27 -334 70 -278 220 -477 442 -587 160 -79 227 -93 440 -93
211 1 282 15 430 88 173 86 281 197 370 381 80 165 114 326 114 540 0 214 -34
375 -114 540 -111 228 -275 367 -520 441 -78 23 -112 27 -250 30 -88 1 -181
-1 -207 -6z"/>
<path d="M6437 6120 c-398 -71 -659 -358 -723 -795 -20 -132 -15 -379 10 -492
66 -304 223 -522 461 -639 148 -73 219 -87 430 -88 159 -1 189 2 258 22 174
50 290 116 394 224 111 116 179 245 231 437 24 90 26 110 26 326 0 216 -2 236
-26 326 -52 192 -120 321 -231 437 -104 108 -250 190 -406 228 -76 19 -348 28
-424 14z"/>
</g>
</svg>
