<?xml version="1.0" encoding="UTF-8"?>
<svg width="454px" height="112px" viewBox="0 0 454 112" version="1.1" xmlns="http://www.w3.org/2000/svg" xmlns:xlink="http://www.w3.org/1999/xlink">
    <!-- Generator: Sketch 49.1 (51147) - http://www.bohemiancoding.com/sketch -->
    <title>logo_blue_trans copy 3</title>
    <desc>Created with Sketch.</desc>
    <defs></defs>
    <g id="logo_blue_trans-copy-3" stroke="none" stroke-width="1" fill="none" fill-rule="evenodd">
        <g id="blue" transform="translate(2.000000, 4.000000)" fill="#FFFFFF">
            <path d="M37.4808675,61.2521568 L38.7320899,62.5033792 C42.4138609,65.7340608 47.3978772,67.836439 50.9428139,67.836439 C54.8217192,67.836439 57.8054032,65.9706218 57.8054032,62.5393272 C57.8054032,59.0338173 54.0018728,57.6909856 51.7638199,56.8711392 C49.5269266,56.0501333 45.6468617,54.7061419 43.9306346,53.9616704 C42.6643373,53.3644697 40.052889,52.3950333 37.814836,50.2311956 C35.5767831,48.1427327 33.7863407,45.1590487 33.7863407,40.3107071 C33.7863407,35.3869906 36.1739838,31.509245 39.1576678,29.0473867 C42.0671366,26.5855285 46.7658882,24.9435166 52.7332563,24.9435166 C57.8854165,24.9435166 63.7008753,27.057491 67.4522231,29.8904253 L76.6757843,20.6680238 L59.6735396,3.66577908 C55.1220589,-0.885701649 47.7422823,-0.885701649 43.1908016,3.66577908 L3.63176629,43.2248143 C-0.919714437,47.7762951 -0.919714437,55.1560717 3.63176629,59.7075524 L21.3274595,77.4044053 L37.4808675,61.2521568 Z" id="Fill-1"></path>
            <path d="M79.9725639,23.9649193 L64.0661534,39.8701701 L63.5524449,39.3576212 C60.5664416,36.5536772 56.1575933,34.493045 52.4352358,34.493045 C48.5563306,34.493045 45.721077,35.9843072 45.721077,39.1175813 C45.721077,42.2496958 48.6305458,43.4429375 50.9428139,44.3393183 C53.1808669,45.2333799 56.9855569,46.5773713 58.6264092,47.2476275 C60.0434562,47.770613 63.4747508,49.1122851 65.787019,51.4245533 C67.9496971,53.588391 69.8155143,56.7216651 69.8155143,61.3462015 C69.8155143,66.2687583 67.5032461,70.7437046 63.7739309,73.6531734 C60.118831,76.5626422 55.343545,77.905474 49.8249471,77.905474 C43.4424376,77.905474 37.6617671,75.065582 33.5091933,71.8163465 L24.624239,80.7001411 L43.1908016,99.2667037 C47.7422823,103.818184 55.1220589,103.818184 59.6735396,99.2667037 L99.2325749,59.7076684 C103.784056,55.1561877 103.784056,47.776411 99.2325749,43.2249303 L79.9725639,23.9649193 Z" id="Fill-3"></path>
            <path d="M134.598568,31.1886613 C131.806474,33.4924371 129.574318,37.1222677 129.574318,41.7287343 C129.574318,46.2668363 131.249792,49.0589302 133.344134,51.0122022 C135.43739,53.0370943 137.880065,53.9442806 139.067221,54.5031335 C140.672159,55.2019708 144.30199,56.4585758 146.395246,57.2246925 C148.490673,57.9940647 152.049969,59.2506697 152.049969,62.5299964 C152.049969,65.7409586 149.257875,67.4869668 145.62913,67.4869668 C141.928764,67.4869668 136.554011,65.0442916 133.063079,61.4144611 L127.479977,69.6507582 C131.388691,73.2795036 137.601181,76.9104193 144.581959,76.9104193 C149.746193,76.9104193 154.214845,75.6538143 157.634157,72.9311701 C161.125088,70.2085259 163.288879,66.0209276 163.288879,61.4144611 C163.288879,57.0868783 161.542871,54.1547999 159.519064,52.1299079 C157.355273,49.9661166 154.145396,48.7095115 152.818256,48.2201084 C151.282767,47.592891 147.722386,46.336286 145.62913,45.4985493 C143.464253,44.6618978 140.742694,43.5441921 140.742694,40.6121137 C140.742694,37.6811205 143.394803,36.284531 147.024634,36.284531 C150.653379,36.284531 154.982047,38.3788727 157.774141,41.1698814 L162.591127,33.283003 C159.30963,30.0025911 152.887706,27.3493965 147.303518,27.3493965 C141.71933,27.3493965 137.321212,28.8848854 134.598568,31.1886613 Z" id="Clip-7"></path>
            <path d="M166.744,52.2698924 C166.744,67.8363855 177.981826,77.1187683 192.292799,77.1187683 C206.601602,77.1187683 217.840512,67.8363855 217.840512,52.2698924 C217.840512,36.7044845 206.601602,27.3493965 192.292799,27.3493965 C177.981826,27.3493965 166.744,36.7044845 166.744,52.2698924 Z M178.19126,51.9899234 C178.19126,42.7759051 184.264851,36.9822832 192.292799,36.9822832 C200.319662,36.9822832 206.392168,42.8464399 206.392168,51.9899234 C206.392168,61.2050269 200.319662,67.0680985 192.292799,67.0680985 C184.264851,67.0680985 178.19126,61.2050269 178.19126,51.9899234 Z" id="Clip-10"></path>
            <polygon id="Clip-13" points="251.468261 27.3493965 240.22935 60.5061896 228.92099 27.3493965 216.914878 27.3493965 234.785147 75.5138298 245.534654 75.5138298 263.403838 27.3493965"></polygon>
            <polygon id="Clip-16" points="258.360055 27.3493965 258.360055 36.284531 270.786121 36.284531 270.786121 75.5138298 282.094481 75.5138298 282.094481 36.284531 294.518377 36.284531 294.518377 27.3493965"></polygon>
            <polygon id="Clip-19" points="297.624079 27.3493965 297.624079 75.5138298 329.455903 75.5138298 329.455903 66.3692611 308.864075 66.3692611 308.864075 55.2019708 327.71098 55.2019708 327.71098 46.1973867 308.864075 46.1973867 308.864075 36.3539807 328.8276 36.3539807 328.8276 27.3493965"></polygon>
            <path d="M332.52688,52.2004427 C332.52688,67.696401 343.624721,77.0493186 357.79571,77.0493186 C367.63803,77.0493186 372.7339,73.0017049 375.176575,70.4884949 L371.40676,61.6933449 C368.753566,64.4149039 364.425983,66.7881295 358.424012,66.7881295 C350.536049,66.7881295 343.975225,61.4144611 343.975225,51.9899234 C343.975225,42.5664709 350.257165,37.1222677 358.424012,37.1222677 C364.776487,37.1222677 369.941806,40.9626176 370.848993,42.1476026 L374.339924,32.794685 C373.082234,31.4675451 367.70748,27.3493965 357.79571,27.3493965 C343.764705,27.3493965 332.52688,36.6339497 332.52688,52.2004427 Z" id="Clip-22"></path>
            <polygon id="Clip-25" points="408.979033 27.3493965 408.979033 45.9868673 389.64381 45.9868673 389.64381 27.3493965 378.33545 27.3493965 378.33545 75.5138298 389.64381 75.5138298 389.64381 55.3408701 408.979033 55.3408701 408.979033 75.5138298 420.287393 75.5138298 420.287393 27.3493965"></polygon>
            <polygon id="Fill-27" points="433.508441 22.6255166 433.508441 14.6832954 430.541638 14.6832954 430.541638 13.6198473 437.679762 13.6198473 437.679762 14.6832954 434.701022 14.6832954 434.701022 22.6255166"></polygon>
            <path d="M438.865398,22.6255166 L438.865398,13.6198473 L440.659153,13.6198473 L442.79039,19.9961954 C442.987887,20.5908582 443.131127,21.034685 443.221195,21.3298462 C443.323199,21.0021305 443.483801,20.5214086 443.699746,19.8865951 L445.855942,13.6198473 L447.459795,13.6198473 L447.459795,22.6255166 L446.31062,22.6255166 L446.31062,15.0880568 L443.69432,22.6255166 L442.618936,22.6255166 L440.014573,14.960009 L440.014573,22.6255166 L438.865398,22.6255166 Z" id="Fill-29"></path>
        </g>
    </g>
</svg>
